TITLE ""
FILE "1Q_t_0910-0919.mp3" MP3
  TRACK 01 AUDIO
    TITLE "1Q_t_0910-0919_01"
    INDEX 01 00:00:00
  TRACK 02 AUDIO
    TITLE "1Q_t_0910-0919_02"
    INDEX 01 00:01:22
  TRACK 03 AUDIO
    TITLE "1Q_t_0910-0919_03"
    INDEX 01 00:01:31
  TRACK 04 AUDIO
    TITLE "1Q_t_0910-0919_04"
    INDEX 01 00:04:08
  TRACK 05 AUDIO
    TITLE "1Q_t_0910-0919_05"
    INDEX 01 00:04:14
  TRACK 06 AUDIO
    TITLE "1Q_t_0910-0919_06"
    INDEX 01 00:08:29
  TRACK 07 AUDIO
    TITLE "1Q_t_0910-0919_07"
    INDEX 01 00:08:74
  TRACK 08 AUDIO
    TITLE "1Q_t_0910-0919_08"
    INDEX 01 00:10:19
  TRACK 09 AUDIO
    TITLE "1Q_t_0910-0919_09"
    INDEX 01 00:10:26
  TRACK 10 AUDIO
    TITLE "1Q_t_0910-0919_10"
    INDEX 01 00:13:03
  TRACK 11 AUDIO
    TITLE "1Q_t_0910-0919_11"
    INDEX 01 00:13:09
  TRACK 12 AUDIO
    TITLE "1Q_t_0910-0919_12"
    INDEX 01 00:18:12
  TRACK 13 AUDIO
    TITLE "1Q_t_0910-0919_13"
    INDEX 01 00:18:57
  TRACK 14 AUDIO
    TITLE "1Q_t_0910-0919_14"
    INDEX 01 00:20:01
  TRACK 15 AUDIO
    TITLE "1Q_t_0910-0919_15"
    INDEX 01 00:20:09
  TRACK 16 AUDIO
    TITLE "1Q_t_0910-0919_16"
    INDEX 01 00:23:23
  TRACK 17 AUDIO
    TITLE "1Q_t_0910-0919_17"
    INDEX 01 00:23:31
  TRACK 18 AUDIO
    TITLE "1Q_t_0910-0919_18"
    INDEX 01 00:28:32
  TRACK 19 AUDIO
    TITLE "1Q_t_0910-0919_19"
    INDEX 01 00:29:06
  TRACK 20 AUDIO
    TITLE "1Q_t_0910-0919_20"
    INDEX 01 00:30:23
  TRACK 21 AUDIO
    TITLE "1Q_t_0910-0919_21"
    INDEX 01 00:30:33
  TRACK 22 AUDIO
    TITLE "1Q_t_0910-0919_22"
    INDEX 01 00:32:69
  TRACK 23 AUDIO
    TITLE "1Q_t_0910-0919_23"
    INDEX 01 00:32:75
  TRACK 24 AUDIO
    TITLE "1Q_t_0910-0919_24"
    INDEX 01 00:37:53
  TRACK 25 AUDIO
    TITLE "1Q_t_0910-0919_25"
    INDEX 01 00:38:25
  TRACK 26 AUDIO
    TITLE "1Q_t_0910-0919_26"
    INDEX 01 00:39:42
  TRACK 27 AUDIO
    TITLE "1Q_t_0910-0919_27"
    INDEX 01 00:39:53
  TRACK 28 AUDIO
    TITLE "1Q_t_0910-0919_28"
    INDEX 01 00:41:25
  TRACK 29 AUDIO
    TITLE "1Q_t_0910-0919_29"
    INDEX 01 00:41:31
  TRACK 30 AUDIO
    TITLE "1Q_t_0910-0919_30"
    INDEX 01 00:45:54
  TRACK 31 AUDIO
    TITLE "1Q_t_0910-0919_31"
    INDEX 01 00:46:28
  TRACK 32 AUDIO
    TITLE "1Q_t_0910-0919_32"
    INDEX 01 00:47:35
  TRACK 33 AUDIO
    TITLE "1Q_t_0910-0919_33"
    INDEX 01 00:47:43
  TRACK 34 AUDIO
    TITLE "1Q_t_0910-0919_34"
    INDEX 01 00:49:75
  TRACK 35 AUDIO
    TITLE "1Q_t_0910-0919_35"
    INDEX 01 00:50:08
  TRACK 36 AUDIO
    TITLE "1Q_t_0910-0919_36"
    INDEX 01 00:55:11
  TRACK 37 AUDIO
    TITLE "1Q_t_0910-0919_37"
    INDEX 01 00:55:56
  TRACK 38 AUDIO
    TITLE "1Q_t_0910-0919_38"
    INDEX 01 00:56:66
  TRACK 39 AUDIO
    TITLE "1Q_t_0910-0919_39"
    INDEX 01 00:56:73
  TRACK 40 AUDIO
    TITLE "1Q_t_0910-0919_40"
    INDEX 01 00:59:31
  TRACK 41 AUDIO
    TITLE "1Q_t_0910-0919_41"
    INDEX 01 00:59:37
  TRACK 42 AUDIO
    TITLE "1Q_t_0910-0919_42"
    INDEX 01 01:04:55
  TRACK 43 AUDIO
    TITLE "1Q_t_0910-0919_43"
    INDEX 01 01:05:27
  TRACK 44 AUDIO
    TITLE "1Q_t_0910-0919_44"
    INDEX 01 01:06:52
  TRACK 45 AUDIO
    TITLE "1Q_t_0910-0919_45"
    INDEX 01 01:06:60
  TRACK 46 AUDIO
    TITLE "1Q_t_0910-0919_46"
    INDEX 01 01:08:18
  TRACK 47 AUDIO
    TITLE "1Q_t_0910-0919_47"
    INDEX 01 01:08:26
  TRACK 48 AUDIO
    TITLE "1Q_t_0910-0919_48"
    INDEX 01 01:13:56
  TRACK 49 AUDIO
    TITLE "1Q_t_0910-0919_49"
    INDEX 01 01:14:26
  TRACK 50 AUDIO
    TITLE "1Q_t_0910-0919_50"
    INDEX 01 01:15:39
  TRACK 51 AUDIO
    TITLE "1Q_t_0910-0919_51"
    INDEX 01 01:15:45
  TRACK 52 AUDIO
    TITLE "1Q_t_0910-0919_52"
    INDEX 01 01:17:19
  TRACK 53 AUDIO
    TITLE "1Q_t_0910-0919_53"
    INDEX 01 01:17:25
  TRACK 54 AUDIO
    TITLE "1Q_t_0910-0919_54"
    INDEX 01 01:23:08
  TRACK 55 AUDIO
    TITLE "1Q_t_0910-0919_55"
    INDEX 01 01:23:55
  TRACK 56 AUDIO
    TITLE "1Q_t_0910-0919_56"
    INDEX 01 01:25:01
  TRACK 57 AUDIO
    TITLE "1Q_t_0910-0919_57"
    INDEX 01 01:25:09
  TRACK 58 AUDIO
    TITLE "1Q_t_0910-0919_58"
    INDEX 01 01:30:14
  TRACK 59 AUDIO
    TITLE "1Q_t_0910-0919_59"
    INDEX 01 01:30:21
  TRACK 60 AUDIO
    TITLE "1Q_t_0910-0919_60"
    INDEX 01 01:37:47
